<?xml version="1.0" encoding="UTF-8" standalone="no"?>
<svg
   xmlns:dc="http://purl.org/dc/elements/1.1/"
   xmlns:cc="http://creativecommons.org/ns#"
   xmlns:rdf="http://www.w3.org/1999/02/22-rdf-syntax-ns#"
   xmlns:svg="http://www.w3.org/2000/svg"
   xmlns="http://www.w3.org/2000/svg"
   viewBox="0 0 800 399.99997"
   height="399.99997"
   width="800"
   xml:space="preserve"
   id="svg2"
   version="1.1"><metadata
     id="metadata8"><rdf:RDF><cc:Work
         rdf:about=""><dc:format>image/svg+xml</dc:format><dc:type
           rdf:resource="http://purl.org/dc/dcmitype/StillImage" /></cc:Work></rdf:RDF></metadata><defs
     id="defs6"><clipPath
       id="clipPath14"
       clipPathUnits="userSpaceOnUse"><path
         id="path12"
         d="M 0,7.919992 H 600 V 307.91998 H 0 Z" /></clipPath><clipPath
       id="clipPath24"
       clipPathUnits="userSpaceOnUse"><path
         style="clip-rule:evenodd"
         id="path22"
         d="M 0,0 H 2500 V 1250 H 0 Z" /></clipPath><clipPath
       id="clipPath36"
       clipPathUnits="userSpaceOnUse"><path
         style="clip-rule:evenodd"
         id="path34"
         d="M 0,0 H 2500 V 1250 H 0 Z" /></clipPath><clipPath
       id="clipPath48"
       clipPathUnits="userSpaceOnUse"><path
         style="clip-rule:evenodd"
         id="path46"
         d="M 0,0 H 2500 V 1250 H 0 Z" /></clipPath></defs><g
     clip-path="url(#clipPath14)"
     transform="matrix(1.3333333,0,0,-1.3333333,0,410.55997)"
     id="g10"><g
       transform="matrix(0.23999999,0,0,-0.23999999,0,307.91998)"
       id="g16"><g
         id="g18"><g
           clip-path="url(#clipPath24)"
           id="g20"><g
             transform="scale(3.125)"
             id="g26"><path
               id="path28"
               style="fill:#ffffff;fill-opacity:1;fill-rule:nonzero;stroke:none"
               d="M 0,0 H 800 V 400 H 0 Z" /></g></g></g><g
         id="g30"><g
           clip-path="url(#clipPath36)"
           id="g32"><g
             transform="scale(3.125)"
             id="g38"><path
               id="path40"
               style="fill:#ffffff;fill-opacity:1;fill-rule:nonzero;stroke:none"
               d="M 0,0 H 800 V 400 H 0 Z" /></g></g></g><g
         id="g42"><g
           clip-path="url(#clipPath48)"
           id="g44"><g
             transform="matrix(2.619873,0,0,2.619873,-59.93948,-160.96368)"
             id="g50"><path
               id="path52"
               style="fill:#ffffff;fill-opacity:1;fill-rule:nonzero;stroke:none"
               d="M 0,0 H 1000 V 600 H 0 Z" /><path
               id="path54"
               style="fill:#ffd21f;fill-opacity:1;fill-rule:nonzero;stroke:none"
               d="m 203.28,202.065 -46.812,36.194 c -1.752,1.35401 -2.252,3.805 -1.173,5.749 l 26.20399,47.221 c 0.86101,1.54999 0.73201,3.46799 -0.32599,4.888 l -1.90699,2.555 c -0.46201,0.61899 -0.17601,1.514 0.55699,1.74399 l 38.173,11.97201 c 0.866,0.272 1.67,-0.565 1.377,-1.43201 l -1.72101,-5.082 c -0.40599,-1.19998 -0.28999,-2.518 0.319,-3.62698 l 29.47,-53.58301 c 0.93201,-1.696 0.67901,-3.806 -0.62799,-5.227 l -37.59401,-40.864 c -1.55499,-1.69 -4.12599,-1.91001 -5.93899,-0.508 z" /><path
               id="path56"
               style="fill:#ffd21f;fill-opacity:1;fill-rule:nonzero;stroke:none"
               d="m 155.36301,325.50201 -23.67402,21.306 c -0.99699,0.89798 -1.36599,2.31199 -0.93699,3.59 l 17.795,52.94598 c 0.16099,0.48002 0.60701,0.80301 1.10901,0.80301 0.60899,0 1.11599,-0.47101 1.16699,-1.08401 l 6.38099,-76.63098 c 0.084,-1.008 -1.093,-1.603 -1.84098,-0.93 z" /><path
               id="path58"
               style="fill:#ffd21f;fill-opacity:1;fill-rule:nonzero;stroke:none"
               d="M 248.74899,252.67999 221.133,302.10101 c -0.666,1.19199 -0.756,2.62699 -0.24399,3.89499 l 39.332,97.46301 c 0.168,0.41599 0.56799,0.68799 1.01199,0.68799 0.637,0 1.13901,-0.548 1.09,-1.19 L 250.819,253.144 c -0.085,-1.103 -1.532,-1.427 -2.07001,-0.46401 z" /><path
               id="path60"
               style="fill:#ffd21f;fill-opacity:1;fill-rule:nonzero;stroke:none"
               d="M 301.06799,284.479 255.61,250.96001 c -0.774,-0.571 -1.853,0.054 -1.755,1.01899 l 5.70399,56.461 c 0.082,0.806 0.95602,1.26001 1.65201,0.85901 l 39.754,-22.94302 c 0.69799,-0.40299 0.75299,-1.39899 0.10299,-1.87699 z" /><path
               id="path62"
               style="fill:#ffd21f;fill-opacity:1;fill-rule:nonzero;stroke:none"
               d="m 275.189,261.04401 26.72,20.78299 c 0.67099,0.52301 1.64999,0.121 1.772,-0.72599 l 7.73099,-53.69001 c 0.113,-0.78 -0.58698,-1.43 -1.34699,-1.252 l -3.289,0.772 c -0.51099,0.11999 -1.035,-0.13899 -1.25601,-0.619 L 289.841,192.183 c -0.44601,-0.97 -1.85501,-0.817 -2.086,0.227 l -14.18801,64.10599 c -0.37598,1.70001 0.25601,3.466 1.62201,4.52802 z" /><path
               id="path64"
               style="fill:#ffd21f;fill-opacity:1;fill-rule:nonzero;stroke:none"
               d="M 307.26099,223.25999 291.92801,189.59 c -0.39002,-0.85601 0.37598,-1.786 1.27899,-1.554 l 51.327,13.173 c 0.781,0.2 1.462,0.679 1.919,1.349 l 7.521,11.028 c 0.45401,0.66701 0.081,1.58501 -0.70599,1.73601 L 308.474,223.892 c -0.5,0.096 -1,-0.16499 -1.21301,-0.63201 z" /><path
               id="path66"
               style="fill:#ffd21f;fill-opacity:1;fill-rule:nonzero;stroke:none"
               d="m 153.80901,407.966 1.05899,-10.155 c 0.097,-0.936 1.22599,-1.33999 1.88501,-0.67501 l 10.05999,10.155 c 0.69899,0.70501 0.205,1.91201 -0.783,1.91201 h -11.11901 c -0.65798,0 -1.17099,-0.57599 -1.10198,-1.237 z" /><path
               id="path68"
               style="fill:#ffd21f;fill-opacity:1;fill-rule:nonzero;stroke:none"
               d="m 265.586,398.05399 1.05801,10.14602 c 0.06,0.56998 0.53498,1.00299 1.10199,1.00299 h 12.16901 c 1.06198,0 1.51599,-1.363 0.66998,-2.01199 l -13.22699,-10.147 c -0.77301,-0.59302 -1.87399,0.034 -1.772,1.00998 z" /><path
               id="path70"
               style="fill:#ffd21f;fill-opacity:1;fill-rule:nonzero;stroke:none"
               d="m 154.073,247.89 23.878,43.15099 c 0.90999,1.64501 0.70501,3.68902 -0.514,5.11502 l -21.34101,24.975 -25.92299,22.10498 c -0.693,0.59101 -1.75599,0.137 -1.82,-0.776 l -4.297,-61.198 c -0.452,-6.43698 1.864,-12.75699 6.356,-17.34298 l 16.55899,-16.90702 c 2.052,-2.211 5.638,-1.76699 7.10201,0.87801 z" /><path
               id="path72"
               style="fill:#ef3340;fill-opacity:1;fill-rule:nonzero;stroke:none"
               d="m 428.25699,188.745 c 11.68802,0 21.21499,2.21 28.582,6.63 7.46402,4.32201 12.96402,10.509 16.5,18.563 3.634,7.956 5.45102,17.43399 5.45102,28.435 0,18.46501 -3.97702,32.019 -11.93302,40.662 C 458.901,291.67801 446.72198,296 430.32001,296 h -6.483 c -4.81202,0 -9.28101,-0.491 -13.40702,-1.47299 -4.125,-0.983 -7.759,-2.75101 -10.90197,-5.30402 -3.14301,-2.65198 -5.59803,-6.33499 -7.36603,-11.04999 -1.76798,-4.71399 -2.65198,-10.80401 -2.65198,-18.268 0,-6.974 0.93298,-13.01399 2.79898,-18.122 1.965,-5.10701 4.27301,-9.18299 6.92502,-12.22801 2.651,-3.045 5.05798,-4.91099 7.21899,-5.59799 l -0.737,-2.8 h -2.505 c -4.51801,0 -8.103,-1.424 -10.75501,-4.27201 -2.55297,-2.94699 -3.87899,-6.875 -3.97699,-11.78599 -0.099,-4.911 1.17801,-8.84 3.82999,-11.786 2.75,-3.04499 6.384,-4.568 10.90201,-4.568 z m -10.607,69.24401 c 0,2.06299 0.44101,3.487 1.32502,4.27298 0.983,0.78601 2.40698,1.17801 4.27298,1.17801 h 7.95602 c 5.009,0 8.888,-1.08001 11.63898,-3.24099 2.75,-2.16102 4.66501,-4.91102 5.74502,-8.25 1.17899,-3.43801 1.76798,-7.07201 1.76798,-10.90201 0,-3.831 -0.58899,-7.514 -1.76798,-11.05001 -1.08001,-3.53599 -2.99502,-6.43299 -5.74502,-8.692 -2.75098,-2.25898 -6.62998,-3.38899 -11.63898,-3.38899 h -7.95602 c -1.866,0 -3.28998,0.442 -4.27298,1.326 -0.88401,0.786 -1.32502,2.25901 -1.32502,4.42 z" /><path
               id="path74"
               style="fill:#057a4c;fill-opacity:1;fill-rule:nonzero;stroke:none"
               d="m 526.48199,296.44299 c -5.89398,-0.098 -11.54101,-0.884 -16.94299,-2.35699 -5.30401,-1.47299 -10.06702,-3.879 -14.29101,-7.219 -4.223,-3.33898 -7.56299,-7.80801 -10.01798,-13.40701 C 482.87299,267.862 481.694,260.93701 481.694,252.687 v -49.944 c 0,-4.71399 1.522,-8.20099 4.56699,-10.46 3.143,-2.35701 6.777,-3.53601 10.902,-3.53601 4.02701,0 7.612,1.179 10.75501,3.53601 3.143,2.25901 4.715,5.74601 4.715,10.46 v 43.02 c 0,6.97299 1.61999,12.08099 4.862,15.32199 3.33898,3.241 7.61199,4.71402 12.81701,4.42001 5.5,-0.393 9.42902,-2.505 11.78601,-6.33599 2.456,-3.83001 3.14301,-8.93702 2.06299,-15.32201 -0.68799,-4.321 -1.47302,-7.955 -2.35699,-10.90199 -0.78601,-2.94602 -1.62104,-5.54901 -2.50501,-7.80802 -0.78601,-2.35699 -1.47302,-4.666 -2.06299,-6.92498 -0.58905,-2.35701 -1.031,-5.10701 -1.32501,-8.25 -0.59003,-6.58101 0.73596,-11.737 3.97699,-15.46901 3.34003,-3.831 7.711,-5.74601 13.11298,-5.74601 5.40204,0 9.625,1.81701 12.67004,5.45101 3.04401,3.634 4.56696,9.134 4.56696,16.50101 V 252.687 c 0,8.25001 -1.17896,15.22401 -3.53595,20.921 -2.25904,5.59799 -5.45105,10.116 -9.57605,13.55399 -4.02698,3.33902 -8.693,5.746 -13.99598,7.21902 -5.20599,1.375 -10.755,2.06198 -16.64801,2.06198 z" /><path
               id="path76"
               style="fill:#057a4c;fill-opacity:1;fill-rule:nonzero;stroke:none"
               d="m 605.82703,295.854 c -4.51801,-0.19601 -8.74201,-0.83499 -12.67102,-1.915 -3.83002,-1.081 -7.219,-2.89801 -10.16498,-5.45099 -2.94702,-2.65201 -5.25501,-6.28601 -6.92505,-10.90302 -1.57098,-4.616 -2.357,-10.509 -2.357,-17.67898 0,-6.97301 0.93305,-13.01401 2.79902,-18.12101 1.96502,-5.108 4.27301,-9.184 6.92498,-12.22799 2.65204,-3.04502 5.05805,-4.91101 7.219,-5.59902 l -0.737,-2.79899 h -2.50397 c -4.518,0 -8.10303,-1.424 -10.755,-4.273 -2.55402,-2.946 -3.88001,-6.875 -3.97803,-11.78599 -0.098,-4.91101 1.17901,-8.83901 3.83002,-11.78601 2.75097,-3.045 6.38501,-4.56701 10.90301,-4.56701 h 40.51502 c 10.60699,0 18.26794,2.554 22.98297,7.66101 4.71399,5.00901 7.07202,11.54101 7.07202,19.594 0,6.483 -1.52301,11.88499 -4.568,16.207 -2.94604,4.321 -7.41503,6.924 -13.406,7.808 v 2.21001 c 6.48199,0.29399 11.737,2.55299 15.76398,6.77699 4.125,4.125 6.18701,10.26401 6.18701,18.41601 0,8.83899 -2.55298,15.862 -7.66101,21.068 -5.107,5.10699 -13.50501,7.612 -25.193,7.513 z M 601.849,229.70399 c 0,2.16102 0.393,3.58501 1.17798,4.27201 0.78601,0.688 2.25903,1.032 4.42004,1.032 h 13.55396 c 3.73303,0 6.58099,-0.54 8.54504,-1.62101 1.96497,-1.17799 2.94696,-3.43699 2.94696,-6.77699 0,-3.438 -0.98199,-5.69701 -2.94696,-6.77701 -1.96405,-1.07998 -4.81201,-1.62098 -8.54504,-1.62098 h -13.55396 c -2.16101,0 -3.63403,0.29499 -4.42004,0.88398 C 602.242,219.686 601.849,221.11 601.849,223.369 Z m 0,29.613 c 0,2.16101 0.393,3.634 1.17798,4.42001 0.88403,0.785 2.45599,1.17801 4.71502,1.17801 h 15.17499 c 3.83002,0 6.77698,-0.68701 8.83899,-2.06201 2.06299,-1.375 3.094,-3.831 3.094,-7.36701 0,-3.53599 -1.03101,-5.94198 -3.094,-7.21899 -2.06201,-1.375 -5.00897,-2.062 -8.83899,-2.062 H 607.742 c -2.25903,0 -3.83099,0.343 -4.71502,1.03099 -0.78498,0.68701 -1.17798,2.11202 -1.17798,4.27201 z" /><path
               id="path78"
               style="fill:#057a4c;fill-opacity:1;fill-rule:nonzero;stroke:none"
               d="m 675.22601,296.00101 c -6.58099,-0.982 -10.85302,-3.97702 -12.81701,-8.987 -1.96503,-5.107 -1.57202,-11.54001 1.17798,-19.30002 L 683.034,212.467 c 1.768,-5.10801 3.78198,-9.478 6.04101,-13.113 2.357,-3.634 5.25501,-6.43299 8.69202,-8.397 3.53595,-1.965 7.90698,-2.94701 13.112,-2.94701 7.85797,0 13.75097,2.16102 17.67999,6.48301 4.02698,4.321 7.36597,10.313 10.01801,17.974 l 19.29998,55.24699 c 2.75,7.76001 3.24097,14.19302 1.47297,19.30002 -1.66999,5.00998 -5.844,8.005 -12.52295,8.987 -5.40204,0.68799 -10.11603,0.049 -14.14301,-1.91501 -3.92902,-1.96399 -6.28601,-5.15601 -7.07202,-9.57599 -0.58899,-2.94702 -0.68701,-5.40201 -0.29498,-7.367 0.49096,-1.96402 0.93396,-3.53501 1.32599,-4.71402 0.29498,-0.982 0.29498,-1.91498 0,-2.79899 -0.19599,-0.98199 -0.93299,-1.47399 -2.21003,-1.47399 h -27.40295 c -1.276,0 -2.06201,0.492 -2.35706,1.47399 -0.19598,0.88401 -0.098,1.81699 0.29505,2.79899 0.393,1.17901 0.78601,2.75 1.17895,4.71402 0.39203,1.96499 0.34302,4.41998 -0.14795,7.367 -0.78601,4.41998 -3.09399,7.612 -6.92401,9.57599 -3.83099,1.96399 -8.44702,2.603 -13.849,1.91501 z m 46.40796,-48.47 -7.66095,-24.015 c -0.19604,-0.98201 -0.54004,-1.71901 -1.031,-2.21001 -0.39301,-0.589 -1.08002,-0.884 -2.06299,-0.884 -0.98206,0 -1.71906,0.295 -2.21002,0.884 -0.39301,0.491 -0.73603,1.228 -1.03101,2.21001 l -7.51398,24.015 z" /><path
               id="path80"
               style="fill:#057a4c;fill-opacity:1;fill-rule:nonzero;stroke:none"
               d="m 776.104,296.29599 c -4.518,0 -8.20098,-1.375 -11.04998,-4.125 -2.84803,-2.75 -4.27204,-6.237 -4.27204,-10.45999 v -77.937 c 0,-4.321 1.375,-7.955 4.125,-10.90201 2.84802,-2.946 6.581,-4.41999 11.19702,-4.41999 4.91101,0 8.74097,1.47399 11.49201,4.41999 2.84796,2.84801 4.27197,6.38401 4.27197,10.60801 v 78.231 c 0,4.22299 -1.52197,7.70999 -4.56695,10.45999 -2.94703,2.75 -6.67902,4.125 -11.19703,4.125 z" /><path
               id="path82"
               style="fill:#000000;fill-opacity:1;fill-rule:nonzero;stroke:none"
               d="m 550.56201,411.401 c -4.91101,0 -8.79101,-1.474 -11.63904,-4.42001 -2.84796,-3.04499 -4.37097,-6.974 -4.56695,-11.78598 -0.39301,-8.349 -2.50501,-14.24201 -6.33502,-17.68 -3.73298,-3.53601 -8.74201,-5.30401 -15.02802,-5.30401 H 510.047 v 23.573 c 0,5.10699 -1.375,8.987 -4.125,11.639 -2.75,2.65201 -6.38501,3.978 -10.90299,3.978 -4.81201,0 -8.59402,-1.32599 -11.34402,-3.978 -2.75,-2.652 -4.125,-6.53201 -4.125,-11.639 v -20.77301 c 0,-10.41199 1.522,-18.318 4.56701,-23.72 3.14301,-5.40198 7.12101,-9.28199 11.93399,-11.63898 L 495.314,336.853 h -2.357 c -4.518,0 -8.103,-1.42401 -10.755,-4.27301 -2.55399,-2.94599 -3.92899,-6.92398 -4.125,-11.93299 -0.098,-4.91101 1.22699,-8.889 3.97799,-11.93399 2.75,-3.04501 6.38401,-4.56701 10.90201,-4.56701 h 37.56802 c 10.50995,0 19.00599,2.55401 25.48798,7.66101 6.482,5.10699 9.724,13.25998 9.724,24.45599 0,5.79501 -0.98297,10.65701 -2.94702,14.586 -1.96399,3.82999 -4.469,6.77701 -7.51398,8.84 -3.04401,2.06201 -6.23602,3.29 -9.57599,3.68301 v 1.91498 c 6.08997,1.47302 11.099,4.71502 15.02802,9.724 4.026,5.009 6.03998,11.737 6.03998,20.18402 0,5.40197 -1.47303,9.47799 -4.41999,12.22799 -2.84802,2.65201 -6.77704,3.978 -11.78601,3.978 z M 509.31,349.67001 c 0,2.16098 0.393,3.58499 1.17901,4.27298 0.78598,0.68701 2.25898,1.03101 4.41999,1.03101 h 13.84802 c 4.12598,0 7.12097,-0.93301 8.987,-2.79901 1.867,-1.866 2.79999,-4.469 2.79999,-7.80899 0,-3.43701 -0.93299,-6.08899 -2.79999,-7.95499 -1.86603,-1.866 -4.86102,-2.79901 -8.987,-2.79901 H 514.909 c -2.16101,0 -3.63401,0.29401 -4.41999,0.884 -0.78601,0.58899 -1.17901,2.013 -1.17901,4.27201 z" /><path
               id="path84"
               style="fill:#000000;fill-opacity:1;fill-rule:nonzero;stroke:none"
               d="m 583.28003,411.69501 c -4.51801,0 -8.20105,-1.375 -11.04901,-4.125 -2.849,-2.75 -4.27301,-6.237 -4.27301,-10.46002 V 319.173 c 0,-4.32101 1.375,-7.95501 4.125,-10.902 2.849,-2.94599 6.58099,-4.41999 11.19702,-4.41999 4.91095,0 8.74194,1.474 11.49194,4.41999 2.84803,2.849 4.27204,6.384 4.27204,10.608 v 78.23099 c 0,4.22302 -1.52204,7.71002 -4.56702,10.46002 -2.94696,2.75 -6.67902,4.125 -11.19696,4.125 z" /><path
               id="path86"
               style="fill:#000000;fill-opacity:1;fill-rule:nonzero;stroke:none"
               d="m 619.47198,411.401 c -4.91101,0 -8.643,-1.52301 -11.19696,-4.56799 -2.55401,-3.04401 -3.83001,-7.12 -3.83001,-12.228 V 325.509 c 0,-5.108 0.93298,-9.233 2.79901,-12.376 1.96399,-3.241 4.46899,-5.598 7.51398,-7.072 3.143,-1.47299 6.531,-2.20999 10.16497,-2.20999 5.40204,0 9.96906,1.42499 13.70203,4.27298 3.73199,2.84799 6.62903,7.857 8.69202,15.02701 l 15.91101,54.36401 h 2.35797 v -56.574 c 0,-5.20502 1.32599,-9.28101 3.97699,-12.228 2.65204,-3.04501 6.43402,-4.56701 11.34503,-4.56701 5.10699,0 8.888,1.522 11.34399,4.56701 2.55402,2.94699 3.82996,7.02298 3.82996,12.228 v 66.59198 c 0,8.25101 -1.81696,14.34 -5.45099,18.26901 -3.63397,3.92899 -8.74097,5.89301 -15.32196,5.89301 -6.67902,0 -11.88403,-1.76801 -15.617,-5.30402 -3.732,-3.535 -6.58002,-8.741 -8.54505,-15.616 L 640.68701,354.974 c -0.19598,-0.982 -0.58899,-1.866 -1.17804,-2.65201 -0.49096,-0.884 -1.17895,-1.32599 -2.06299,-1.32599 -1.07995,0 -1.81695,0.44199 -2.20996,1.32599 -0.393,0.78601 -0.58905,1.67001 -0.58905,2.65201 v 39.63101 c 0,5.108 -1.27697,9.18399 -3.83099,12.228 -2.55298,3.04498 -6.33496,4.56799 -11.344,4.56799 z" /><path
               id="path88"
               style="fill:#000000;fill-opacity:1;fill-rule:nonzero;stroke:none"
               d="m 732.62701,344.95599 22.099,-31.23401 c 3.92798,-5.59799 8.20099,-8.74099 12.81702,-9.42898 4.61597,-0.785 8.79095,0.29501 12.52295,3.242 2.45502,1.866 4.07605,4.37 4.862,7.513 0.78601,3.14301 0.54004,6.48301 -0.737,10.01899 -1.27698,3.535 -3.82996,6.875 -7.66095,10.018 l -24.604,19.88901 v 3.09399 c 3.14294,0 6.82696,0.39301 11.04998,1.17902 4.22296,0.785 8.05402,2.55298 11.49201,5.30298 2.75,2.06302 5.10699,4.42001 7.07098,7.07202 2.06299,2.65198 3.68298,5.94199 4.862,9.871 1.17902,3.831 1.76801,8.69199 1.76801,14.58499 0,4.81299 -1.32599,8.693 -3.97803,11.63901 -2.55298,2.849 -6.38397,4.27298 -11.49097,4.27298 -5.10803,0 -9.03601,-1.42398 -11.78699,-4.27298 -2.651,-2.94601 -3.97705,-6.82602 -3.97705,-11.63901 0,-5.40201 -0.88397,-9.67401 -2.65197,-12.81701 -1.66999,-3.241 -3.92902,-5.598 -6.77698,-7.07199 -2.849,-1.473 -5.94299,-2.21 -9.28204,-2.21 h -7.219 v 23.13099 c 0,4.22302 -1.47296,7.71002 -4.41998,10.46002 -2.84802,2.75 -6.53101,4.125 -11.04901,4.125 -4.51801,0 -8.25098,-1.375 -11.19696,-4.125 -2.849,-2.75 -4.27301,-6.237 -4.27301,-10.46002 V 319.173 c 0,-4.32101 1.42401,-7.95501 4.27301,-10.902 2.84796,-2.94599 6.57995,-4.41999 11.19696,-4.41999 4.91003,0 8.69201,1.474 11.34399,4.41999 2.75,2.849 4.125,6.384 4.125,10.608 v 25.78201 z" /><path
               id="path90"
               style="fill:#000000;fill-opacity:1;fill-rule:nonzero;stroke:none"
               d="m 834.729,411.84299 c -5.5,0 -11.04901,-0.54099 -16.64801,-1.62101 -5.5,-1.17898 -10.60699,-2.84799 -15.32202,-5.00897 -4.61596,-2.259 -8.349,-4.96002 -11.19696,-8.10302 -2.84802,-3.241 -4.27203,-6.974 -4.27203,-11.197 0,-5.402 1.71802,-9.72399 5.156,-12.96499 3.43799,-3.241 7.46503,-4.76401 12.081,-4.56699 3.63403,0.098 7.268,0.884 10.90204,2.357 3.63397,1.375 7.31695,2.75 11.04998,4.125 3.83002,1.375 7.66101,2.06298 11.49097,2.06298 3.83106,0 6.48303,-0.49099 7.95606,-1.47299 1.47296,-0.983 2.20996,-2.30899 2.20996,-3.97799 0,-1.965 -1.03101,-3.585 -3.094,-4.862 -2.06299,-1.27701 -4.66498,-2.25901 -7.80798,-2.94702 l -7.219,-1.76798 c -7.46502,-1.767 -14.14404,-3.73202 -20.03698,-5.89301 -5.89301,-2.259 -10.55805,-5.20501 -13.99604,-8.83901 -3.33898,-3.73298 -5.00897,-8.693 -5.00897,-14.87998 0,-6.77701 1.86597,-12.27801 5.59796,-16.50101 3.73304,-4.32199 8.79102,-7.46499 15.17499,-9.42901 6.38403,-1.96399 13.50501,-2.94699 21.36304,-2.94699 8.05298,0 15.125,0.83499 21.21496,2.505 6.08905,1.67001 10.80402,4.07599 14.14301,7.219 3.43805,3.143 5.15704,6.97399 5.15704,11.492 0,4.81201 -1.32605,8.59399 -3.97802,11.34399 -2.55402,2.65201 -5.99201,3.978 -10.31299,3.978 -2.84802,0 -5.844,-0.491 -8.987,-1.474 -3.04498,-0.98199 -6.28601,-1.91498 -9.724,-2.79898 -3.33899,-0.98202 -6.92401,-1.47302 -10.75501,-1.47302 -3.43701,0 -6.03997,0.54001 -7.80798,1.62002 -1.768,0.98298 -2.65204,2.30899 -2.65204,3.978 0,2.06299 1.17902,3.58499 3.53601,4.56699 2.357,0.983 6.237,2.16101 11.63898,3.53601 l 8.25,1.91598 c 6.77704,1.66901 12.71906,3.68302 17.82703,6.04001 5.10699,2.357 9.08502,5.45099 11.93298,9.28201 2.849,3.82999 4.27301,8.83899 4.27301,15.02698 0,7.465 -1.76801,13.55402 -5.30402,18.26901 -3.53595,4.616 -8.44696,8.00501 -14.73297,10.16501 -6.28601,2.16098 -13.65197,3.24198 -22.099,3.24198 z" /><path
               id="path92"
               style="fill:#ef3340;fill-opacity:1;fill-rule:nonzero;stroke:none"
               d="m 428.25699,304.14401 c 11.68802,0 21.21499,2.20999 28.582,6.62998 7.46402,4.32202 12.96402,10.509 16.5,18.56302 3.634,7.95599 5.45102,17.43399 5.45102,28.43499 0,18.465 -3.97702,32.01899 -11.93302,40.66199 -7.95599,8.64301 -20.13501,12.965 -36.53698,12.965 h -6.483 c -4.81202,0 -9.28101,-0.491 -13.40702,-1.473 -4.125,-0.983 -7.759,-2.751 -10.90197,-5.30398 -3.14301,-2.65201 -5.59803,-6.33502 -7.36603,-11.05002 -1.76798,-4.71399 -2.65198,-10.80398 -2.65198,-18.268 0,-6.974 0.93298,-13.01398 2.79898,-18.12198 1.965,-5.107 4.27301,-9.18302 6.92502,-12.228 2.651,-3.04501 5.05798,-4.91101 7.21899,-5.59802 l -0.737,-2.79999 h -2.505 c -4.51801,0 -8.103,-1.42401 -10.75501,-4.272 -2.55297,-2.94699 -3.87899,-6.875 -3.97699,-11.78601 -0.099,-4.91098 1.17801,-8.84 3.82999,-11.78699 2.75,-3.04401 6.384,-4.56699 10.90201,-4.56699 z m -10.607,69.24399 c 0,2.06299 0.44101,3.487 1.32502,4.27301 0.983,0.785 2.40698,1.17798 4.27298,1.17798 h 7.95602 c 5.009,0 8.888,-1.07999 11.63898,-3.241 2.75,-2.16098 4.66501,-4.91098 5.74502,-8.25 1.17899,-3.43799 1.76798,-7.07199 1.76798,-10.90198 0,-3.83102 -0.58899,-7.514 -1.76798,-11.05001 -1.08001,-3.53601 -2.99502,-6.43299 -5.74502,-8.69199 -2.75098,-2.259 -6.62998,-3.38901 -11.63898,-3.38901 h -7.95602 c -1.866,0 -3.28998,0.44199 -4.27298,1.32599 -0.88401,0.78601 -1.32502,2.259 -1.32502,4.42001 z" /></g></g></g></g><path
       id="path94"
       style="fill:#000000;fill-opacity:0;fill-rule:nonzero;stroke:none"
       d="M -14.385475,-30.711292 H 614.38547 V 346.55128 H -14.385475 Z" /></g></svg>